<?xml version="1.0" encoding="iso-8859-1"?>
<!-- Generator: Adobe Illustrator 19.0.0, SVG Export Plug-In . SVG Version: 6.00 Build 0)  -->
<svg version="1.1" id="Layer_1" xmlns="http://www.w3.org/2000/svg" xmlns:xlink="http://www.w3.org/1999/xlink" x="0px" y="0px"
	 viewBox="0 0 512 512" style="enable-background:new 0 0 512 512;" xml:space="preserve">
<g>
	<g>
		<g>
			<path d="M469.333,85.333H42.667C19.146,85.333,0,104.469,0,128v256c0,23.531,19.146,42.667,42.667,42.667h426.667
				C492.854,426.667,512,407.531,512,384V128C512,104.469,492.854,85.333,469.333,85.333z M490.667,384
				c0,11.76-9.563,21.333-21.333,21.333H42.667c-11.771,0-21.333-9.573-21.333-21.333V128c0-11.76,9.563-21.333,21.333-21.333
				h426.667c11.771,0,21.333,9.573,21.333,21.333V384z"/>
			<path d="M106.667,138.667H64c-5.896,0-10.667,4.771-10.667,10.667V192c0,5.896,4.771,10.667,10.667,10.667h42.667
				c5.896,0,10.667-4.771,10.667-10.667v-42.667C117.333,143.438,112.563,138.667,106.667,138.667z M96,181.333H74.667V160H96
				V181.333z"/>
			<path d="M149.333,202.667H192c5.896,0,10.667-4.771,10.667-10.667v-42.667c0-5.896-4.771-10.667-10.667-10.667h-42.667
				c-5.896,0-10.667,4.771-10.667,10.667V192C138.667,197.896,143.438,202.667,149.333,202.667z M160,160h21.333v21.333H160V160z"/>
			<path d="M234.667,202.667h42.667c5.896,0,10.667-4.771,10.667-10.667v-42.667c0-5.896-4.771-10.667-10.667-10.667h-42.667
				c-5.896,0-10.667,4.771-10.667,10.667V192C224,197.896,228.771,202.667,234.667,202.667z M245.333,160h21.333v21.333h-21.333V160
				z"/>
			<path d="M362.667,138.667H320c-5.896,0-10.667,4.771-10.667,10.667V192c0,5.896,4.771,10.667,10.667,10.667h42.667
				c5.896,0,10.667-4.771,10.667-10.667v-42.667C373.333,143.438,368.563,138.667,362.667,138.667z M352,181.333h-21.333V160H352
				V181.333z"/>
			<path d="M448,138.667h-42.667c-5.896,0-10.667,4.771-10.667,10.667V192c0,5.896,4.771,10.667,10.667,10.667H448
				c5.896,0,10.667-4.771,10.667-10.667v-42.667C458.667,143.438,453.896,138.667,448,138.667z M437.333,181.333H416V160h21.333
				V181.333z"/>
			<path d="M106.667,309.333H64c-5.896,0-10.667,4.771-10.667,10.667v42.667c0,5.896,4.771,10.667,10.667,10.667h42.667
				c5.896,0,10.667-4.771,10.667-10.667V320C117.333,314.104,112.563,309.333,106.667,309.333z M96,352H74.667v-21.333H96V352z"/>
			<path d="M362.667,309.333H149.333c-5.896,0-10.667,4.771-10.667,10.667v42.667c0,5.896,4.771,10.667,10.667,10.667h213.333
				c5.896,0,10.667-4.771,10.667-10.667V320C373.333,314.104,368.563,309.333,362.667,309.333z M352,352H160v-21.333h192V352z"/>
			<path d="M448,309.333h-42.667c-5.896,0-10.667,4.771-10.667,10.667v42.667c0,5.896,4.771,10.667,10.667,10.667H448
				c5.896,0,10.667-4.771,10.667-10.667V320C458.667,314.104,453.896,309.333,448,309.333z M437.333,352H416v-21.333h21.333V352z"/>
			<path d="M106.667,224H64c-5.896,0-10.667,4.771-10.667,10.667v42.667C53.333,283.229,58.104,288,64,288h42.667
				c5.896,0,10.667-4.771,10.667-10.667v-42.667C117.333,228.771,112.563,224,106.667,224z M96,266.667H74.667v-21.333H96V266.667z"
				/>
			<path d="M149.333,288H192c5.896,0,10.667-4.771,10.667-10.667v-42.667c0-5.896-4.771-10.667-10.667-10.667h-42.667
				c-5.896,0-10.667,4.771-10.667,10.667v42.667C138.667,283.229,143.438,288,149.333,288z M160,245.333h21.333v21.333H160V245.333z
				"/>
			<path d="M234.667,288h42.667c5.896,0,10.667-4.771,10.667-10.667v-42.667c0-5.896-4.771-10.667-10.667-10.667h-42.667
				c-5.896,0-10.667,4.771-10.667,10.667v42.667C224,283.229,228.771,288,234.667,288z M245.333,245.333h21.333v21.333h-21.333
				V245.333z"/>
			<path d="M362.667,224H320c-5.896,0-10.667,4.771-10.667,10.667v42.667c0,5.896,4.771,10.667,10.667,10.667h42.667
				c5.896,0,10.667-4.771,10.667-10.667v-42.667C373.333,228.771,368.563,224,362.667,224z M352,266.667h-21.333v-21.333H352
				V266.667z"/>
			<path d="M448,224h-42.667c-5.896,0-10.667,4.771-10.667,10.667v42.667c0,5.896,4.771,10.667,10.667,10.667H448
				c5.896,0,10.667-4.771,10.667-10.667v-42.667C458.667,228.771,453.896,224,448,224z M437.333,266.667H416v-21.333h21.333V266.667
				z"/>
		</g>
	</g>
</g>
<g>
</g>
<g>
</g>
<g>
</g>
<g>
</g>
<g>
</g>
<g>
</g>
<g>
</g>
<g>
</g>
<g>
</g>
<g>
</g>
<g>
</g>
<g>
</g>
<g>
</g>
<g>
</g>
<g>
</g>
</svg>
